<svg width="16.000000" height="16.000000" viewBox="0 0 16 16" fill="none" xmlns="http://www.w3.org/2000/svg" xmlns:xlink="http://www.w3.org/1999/xlink">
	<defs>
		<clipPath id="clip31_1331">
			<rect id="map-pin" width="16.000000" height="16.000000" fill="white" fill-opacity="0"/>
		</clipPath>
	</defs>
	<rect id="map-pin" width="16.000000" height="16.000000" fill="#FFFFFF" fill-opacity="0"/>
	<g clip-path="url(#clip31_1331)">
		<path id="Vector" d="M8 15.33C8 15.33 2 11.33 2 6.66C2 5.07 2.63 3.54 3.75 2.42C4.88 1.29 6.4 0.66 8 0.66C9.59 0.66 11.11 1.29 12.24 2.42C13.36 3.54 14 5.07 14 6.66C14 11.33 8 15.33 8 15.33Z" stroke="#11101C" stroke-opacity="1.000000" stroke-width="1.500000" stroke-linejoin="round"/>
		<path id="Vector" d="M8 8.66C6.89 8.66 6 7.77 6 6.66C6 5.56 6.89 4.66 8 4.66C9.1 4.66 10 5.56 10 6.66C10 7.77 9.1 8.66 8 8.66Z" stroke="#11101C" stroke-opacity="1.000000" stroke-width="1.500000" stroke-linejoin="round"/>
	</g>
</svg>
